:FULLY-SPECIFIED
:FORCE-ALL-JOINTS-BE-3DOF
:DEGREES
340
root 9.38564 16.6983 11.9525 6.01921 10.3031 -1.00674
lfemur 6.64321 6.73481 -12.2161
ltibia 41.212 0 0
lfoot 10.5481 2.45917 0
ltoes -11.0484 0 0
rfemur -34.0707 3.27378 22.8171
rtibia 39.327 0 0
rfoot -13.6829 0.0620935 0
rtoes -13.0629 0 0
lowerback -6.34612 -4.1909 -2.52615
upperback -1.47902 -5.49229 3.28926
thorax 2.58281 -2.77277 4.32854
lowerneck -19.8167 -5.48619 -13.2838
upperneck 20.7787 -7.16086 14.2208
head 11.027 -2.70298 6.34584
lclavicle -4.89988e-015 -5.13006e-017 0
lhumerus -28.0002 -21.9503 100.16
lradius 25.0771 0 0
lwrist 3.90452 0 0
lhand -10.4183 -22.3844 0
lfingers 7.12502 0 0
lthumb 15.5809 7.00802 0
rclavicle -4.89988e-015 -5.13006e-017 0
rhumerus -45.9622 4.8153 -81.3562
rradius 31.35 0 0
rwrist -16.732 0 0
rhand -28.6378 -24.5294 0
rfingers 7.12502 0 0
rthumb -2.00193 -54.4989 0
341
root 9.36537 16.6993 12.1295 5.96033 10.3809 -1.20949
lfemur 6.33101 6.8533 -11.6925
ltibia 42.6331 0 0
lfoot 11.4016 2.56016 0
ltoes -11.4349 0 0
rfemur -33.747 2.9328 23.5068
rtibia 39.8438 0 0
rfoot -13.139 0.690797 0
rtoes -12.7788 0 0
lowerback -6.27904 -4.16762 -2.38248
upperback -1.50354 -5.4767 3.33734
thorax 2.50893 -2.76147 4.30659
lowerneck -19.8371 -5.49908 -13.3052
upperneck 20.7445 -7.18523 14.2909
head 11.0261 -2.70717 6.37135
lclavicle -1.89086e-015 -8.2079e-016 0
lhumerus -28.5112 -21.3728 100.446
lradius 24.5925 0 0
lwrist 3.46709 0 0
lhand -10.4232 -22.4189 0
lfingers 7.12502 0 0
lthumb 15.5761 6.97395 0
rclavicle -1.89086e-015 -8.2079e-016 0
rhumerus -45.8512 4.81843 -81.3263
rradius 31.3251 0 0
rwrist -16.7218 0 0
rhand -28.7177 -24.4812 0
rfingers 7.12502 0 0
rthumb -2.07905 -54.4503 0
342
root 9.3451 16.7003 12.3066 5.90144 10.4586 -1.41225
lfemur 6.0188 6.97178 -11.1689
ltibia 44.0542 0 0
lfoot 12.255 2.66114 0
ltoes -11.8214 0 0
rfemur -33.4232 2.59181 24.1964
rtibia 40.3606 0 0
rfoot -12.595 1.3195 0
rtoes -12.4948 0 0
lowerback -6.21195 -4.14433 -2.23882
upperback -1.52806 -5.4611 3.38541
thorax 2.43506 -2.75017 4.28464
lowerneck -19.8575 -5.51196 -13.3266
upperneck 20.7104 -7.20961 14.361
head 11.0253 -2.71137 6.39686
lclavicle 1.11816e-015 -1.59028e-015 0
lhumerus -29.0223 -20.7952 100.731
lradius 24.1079 0 0
lwrist 3.02965 0 0
lhand -10.4282 -22.4533 0
lfingers 7.12502 0 0
lthumb 15.5713 6.93988 0
rclavicle 1.11816e-015 -1.59028e-015 0
rhumerus -45.7401 4.82156 -81.2964
rradius 31.3003 0 0
rwrist -16.7115 0 0
rhand -28.7975 -24.4329 0
rfingers 7.12502 0 0
rthumb -2.15617 -54.4017 0
343
root 9.34479 16.7123 12.4326 5.91122 10.2413 -1.46748
lfemur 4.67255 6.92422 -11.3856
ltibia 44.4125 0 0
lfoot 11.3781 2.95644 0
ltoes -11.5446 0 0
rfemur -32.7497 2.70712 24.3573
rtibia 39.9861 0 0
rfoot -12.8093 1.37881 0
rtoes -12.5483 0 0
lowerback -6.19759 -3.99696 -2.16078
upperback -1.50069 -5.26945 3.36615
thorax 2.43752 -2.65402 4.23712
lowerneck -19.8616 -5.53565 -13.2985
upperneck 20.7355 -7.23838 14.3017
head 11.0358 -2.72845 6.365
lclavicle 1.05243e-015 -1.19271e-015 0
lhumerus -29.598 -20.6982 100.63
lradius 24.2417 0 0
lwrist 3.32528 0 0
lhand -10.5636 -22.4506 0
lfingers 7.12502 0 0
lthumb 15.4408 6.95127 0
rclavicle 1.05243e-015 -1.19271e-015 0
rhumerus -45.3274 5.25696 -81.3827
rradius 31.7219 0 0
rwrist -16.9225 0 0
rhand -28.8779 -24.4121 0
rfingers 7.12502 0 0
rthumb -2.23384 -54.3797 0
344
root 9.34448 16.7242 12.5585 5.921 10.024 -1.52271
lfemur 3.32629 6.87665 -11.6024
ltibia 44.7708 0 0
lfoot 10.5013 3.25174 0
ltoes -11.2678 0 0
rfemur -32.0762 2.82244 24.5181
rtibia 39.6116 0 0
rfoot -13.0237 1.43813 0
rtoes -12.6017 0 0
lowerback -6.18323 -3.84959 -2.08274
upperback -1.47332 -5.07779 3.34689
thorax 2.43998 -2.55788 4.18961
lowerneck -19.8658 -5.55934 -13.2704
upperneck 20.7607 -7.26714 14.2425
head 11.0464 -2.74553 6.33315
lclavicle 9.86706e-016 -7.95139e-016 0
lhumerus -30.1736 -20.6012 100.529
lradius 24.3755 0 0
lwrist 3.62091 0 0
lhand -10.6991 -22.4479 0
lfingers 7.12502 0 0
lthumb 15.3102 6.96267 0
rclavicle 9.86706e-016 -7.95139e-016 0
rhumerus -44.9146 5.69236 -81.469
rradius 32.1436 0 0
rwrist -17.1335 0 0
rhand -28.9584 -24.3914 0
rfingers 7.12502 0 0
rthumb -2.31151 -54.3577 0
345
root 9.34417 16.7362 12.6845 5.93078 9.80667 -1.57795
lfemur 1.98004 6.82909 -11.8191
ltibia 45.129 0 0
lfoot 9.62439 3.54704 0
ltoes -10.991 0 0
rfemur -31.4028 2.93775 24.679
rtibia 39.2371 0 0
rfoot -13.238 1.49744 0
rtoes -12.6552 0 0
lowerback -6.16888 -3.70222 -2.0047
upperback -1.44595 -4.88614 3.32763
thorax 2.44244 -2.46173 4.14209
lowerneck -19.8699 -5.58303 -13.2423
upperneck 20.7858 -7.29591 14.1832
head 11.0569 -2.76261 6.30129
lclavicle 9.20979e-016 -3.97569e-016 0
lhumerus -30.7493 -20.5042 100.428
lradius 24.5093 0 0
lwrist 3.91654 0 0
lhand -10.8345 -22.4452 0
lfingers 7.12502 0 0
lthumb 15.1797 6.97406 0
rclavicle 9.20979e-016 -3.97569e-016 0
rhumerus -44.5019 6.12775 -81.5553
rradius 32.5652 0 0
rwrist -17.3445 0 0
rhand -29.0388 -24.3706 0
rfingers 7.12502 0 0
rthumb -2.38918 -54.3358 0
346
root 9.34387 16.7481 12.8104 5.94055 9.58937 -1.63318
lfemur 0.633781 6.78152 -12.0359
ltibia 45.4873 0 0
lfoot 8.74752 3.84233 0
ltoes -10.7142 0 0
rfemur -30.7293 3.05307 24.8398
rtibia 38.8626 0 0
rfoot -13.4523 1.55675 0
rtoes -12.7086 0 0
lowerback -6.15452 -3.55484 -1.92666
upperback -1.41858 -4.69448 3.30837
thorax 2.4449 -2.36559 4.09457
lowerneck -19.8741 -5.60672 -13.2143
upperneck 20.811 -7.32468 14.124
head 11.0674 -2.7797 6.26943
lclavicle 8.55252e-016 1.29032e-021 0
lhumerus -31.325 -20.4071 100.327
lradius 24.6431 0 0
lwrist 4.21217 0 0
lhand -10.97 -22.4426 0
lfingers 7.12502 0 0
lthumb 15.0491 6.98545 0
rclavicle 8.55252e-016 1.29032e-021 0
rhumerus -44.0892 6.56315 -81.6415
rradius 32.9869 0 0
rwrist -17.5554 0 0
rhand -29.1192 -24.3499 0
rfingers 7.12502 0 0
rthumb -2.46685 -54.3138 0
347
root 9.34356 16.7601 12.9364 5.95033 9.37206 -1.68841
lfemur -0.712474 6.73396 -12.2526
ltibia 45.8456 0 0
lfoot 7.87065 4.13763 0
ltoes -10.4374 0 0
rfemur -30.0558 3.16838 25.0007
rtibia 38.4881 0 0
rfoot -13.6666 1.61607 0
rtoes -12.7621 0 0
lowerback -6.14016 -3.40747 -1.84862
upperback -1.39121 -4.50283 3.28911
thorax 2.44736 -2.26944 4.04705
lowerneck -19.8782 -5.63041 -13.1862
upperneck 20.8361 -7.35345 14.0647
head 11.0779 -2.79678 6.23758
lclavicle 7.89525e-016 3.97572e-016 0
lhumerus -31.9006 -20.3101 100.226
lradius 24.7769 0 0
lwrist 4.5078 0 0
lhand -11.1054 -22.4399 0
lfingers 7.12502 0 0
lthumb 14.9186 6.99684 0
rclavicle 7.89525e-016 3.97572e-016 0
rhumerus -43.6764 6.99855 -81.7278
rradius 33.4085 0 0
rwrist -17.7664 0 0
rhand -29.1996 -24.3291 0
rfingers 7.12502 0 0
rthumb -2.54452 -54.2918 0
348
root 9.34325 16.7721 13.0623 5.96011 9.15475 -1.74364
lfemur -2.05873 6.6864 -12.4694
ltibia 46.2039 0 0
lfoot 6.99377 4.43293 0
ltoes -10.1606 0 0
rfemur -29.3823 3.2837 25.1615
rtibia 38.1136 0 0
rfoot -13.881 1.67538 0
rtoes -12.8155 0 0
lowerback -6.1258 -3.2601 -1.77058
upperback -1.36383 -4.31117 3.26985
thorax 2.44983 -2.17329 3.99954
lowerneck -19.8824 -5.6541 -13.1581
upperneck 20.8613 -7.38221 14.0055
head 11.0885 -2.81386 6.20572
lclavicle 7.23798e-016 7.95142e-016 0
lhumerus -32.4763 -20.2131 100.125
lradius 24.9108 0 0
lwrist 4.80343 0 0
lhand -11.2409 -22.4372 0
lfingers 7.12502 0 0
lthumb 14.788 7.00824 0
rclavicle 7.23798e-016 7.95142e-016 0
rhumerus -43.2637 7.43395 -81.8141
rradius 33.8302 0 0
rwrist -17.9774 0 0
rhand -29.2801 -24.3084 0
rfingers 7.12502 0 0
rthumb -2.62218 -54.2698 0
349
root 9.34294 16.784 13.1883 5.96989 8.93744 -1.79887
lfemur -3.40498 6.63883 -12.6861
ltibia 46.5621 0 0
lfoot 6.1169 4.72823 0
ltoes -9.88377 0 0
rfemur -28.7088 3.39901 25.3224
rtibia 37.7391 0 0
rfoot -14.0953 1.73469 0
rtoes -12.869 0 0
lowerback -6.11144 -3.11273 -1.69254
upperback -1.33646 -4.11952 3.25059
thorax 2.45229 -2.07715 3.95202
lowerneck -19.8865 -5.67779 -13.13
upperneck 20.8864 -7.41098 13.9462
head 11.099 -2.83094 6.17386
lclavicle 6.58071e-016 1.19271e-015 0
lhumerus -33.052 -20.1161 100.024
lradius 25.0446 0 0
lwrist 5.09906 0 0
lhand -11.3763 -22.4345 0
lfingers 7.12502 0 0
lthumb 14.6575 7.01963 0
rclavicle 6.58071e-016 1.19271e-015 0
rhumerus -42.851 7.86935 -81.9004
rradius 34.2518 0 0
rwrist -18.1884 0 0
rhand -29.3605 -24.2876 0
rfingers 7.12502 0 0
rthumb -2.69985 -54.2479 0
350
root 9.34263 16.796 13.3142 5.97967 8.72013 -1.85411
lfemur -4.75124 6.59127 -12.9029
ltibia 46.9204 0 0
lfoot 5.24003 5.02353 0
ltoes -9.60696 0 0
rfemur -28.0354 3.51432 25.4832
rtibia 37.3646 0 0
rfoot -14.3096 1.79401 0
rtoes -12.9224 0 0
lowerback -6.09709 -2.96536 -1.6145
upperback -1.30909 -3.92786 3.23133
thorax 2.45475 -1.981 3.9045
lowerneck -19.8907 -5.70149 -13.1019
upperneck 20.9116 -7.43975 13.8869
head 11.1095 -2.84802 6.14201
lclavicle 5.92343e-016 1.59028e-015 0
lhumerus -33.6276 -20.0191 99.9227
lradius 25.1784 0 0
lwrist 5.3947 0 0
lhand -11.5118 -22.4318 0
lfingers 7.12502 0 0
lthumb 14.527 7.03102 0
rclavicle 5.92343e-016 1.59028e-015 0
rhumerus -42.4382 8.30474 -81.9867
rradius 34.6735 0 0
rwrist -18.3994 0 0
rhand -29.4409 -24.2669 0
rfingers 7.12502 0 0
rthumb -2.77752 -54.2259 0
351
root 9.34232 16.808 13.4402 5.98945 8.50282 -1.90934
lfemur -6.09749 6.54371 -13.1196
ltibia 47.2787 0 0
lfoot 4.36316 5.31883 0
ltoes -9.33016 0 0
rfemur -27.3619 3.62964 25.6441
rtibia 36.9901 0 0
rfoot -14.524 1.85332 0
rtoes -12.9759 0 0
lowerback -6.08273 -2.81799 -1.53646
upperback -1.28172 -3.73621 3.21207
thorax 2.45721 -1.88485 3.85699
lowerneck -19.8948 -5.72518 -13.0738
upperneck 20.9367 -7.46852 13.8277
head 11.12 -2.8651 6.11015
lclavicle 5.26616e-016 1.98785e-015 0
lhumerus -34.2033 -19.9221 99.8217
lradius 25.3122 0 0
lwrist 5.69033 0 0
lhand -11.6472 -22.4291 0
lfingers 7.12502 0 0
lthumb 14.3964 7.04242 0
rclavicle 5.26616e-016 1.98785e-015 0
rhumerus -42.0255 8.74014 -82.073
rradius 35.0951 0 0
rwrist -18.6104 0 0
rhand -29.5214 -24.2461 0
rfingers 7.12502 0 0
rthumb -2.85519 -54.2039 0
352
root 9.34201 16.8199 13.5661 5.99923 8.28552 -1.96457
lfemur -7.44375 6.49614 -13.3364
ltibia 47.637 0 0
lfoot 3.48629 5.61413 0
ltoes -9.05335 0 0
rfemur -26.6884 3.74495 25.8049
rtibia 36.6156 0 0
rfoot -14.7383 1.91264 0
rtoes -13.0293 0 0
lowerback -6.06837 -2.67062 -1.45842
upperback -1.25435 -3.54455 3.19281
thorax 2.45967 -1.78871 3.80947
lowerneck -19.899 -5.74887 -13.0457
upperneck 20.9619 -7.49728 13.7684
head 11.1306 -2.88218 6.07829
lclavicle 4.60889e-016 2.38542e-015 0
lhumerus -34.7789 -19.8251 99.7207
lradius 25.446 0 0
lwrist 5.98596 0 0
lhand -11.7827 -22.4265 0
lfingers 7.12502 0 0
lthumb 14.2659 7.05381 0
rclavicle 4.60889e-016 2.38542e-015 0
rhumerus -41.6128 9.17554 -82.1593
rradius 35.5168 0 0
rwrist -18.8214 0 0
rhand -29.6018 -24.2254 0
rfingers 7.12502 0 0
rthumb -2.93286 -54.1819 0
353
root 9.3417 16.8319 13.6921 6.00901 8.06821 -2.0198
lfemur -8.79 6.44858 -13.5531
ltibia 47.9953 0 0
lfoot 2.60942 5.90943 0
ltoes -8.77655 0 0
rfemur -26.0149 3.86027 25.9658
rtibia 36.2411 0 0
rfoot -14.9526 1.97195 0
rtoes -13.0828 0 0
lowerback -6.05401 -2.52325 -1.38038
upperback -1.22698 -3.3529 3.17355
thorax 2.46213 -1.69256 3.76195
lowerneck -19.9031 -5.77256 -13.0176
upperneck 20.987 -7.52605 13.7092
head 11.1411 -2.89926 6.04644
lclavicle 3.95162e-016 2.78299e-015 0
lhumerus -35.3546 -19.7281 99.6196
lradius 25.5798 0 0
lwrist 6.28159 0 0
lhand -11.9181 -22.4238 0
lfingers 7.12502 0 0
lthumb 14.1353 7.0652 0
rclavicle 3.95162e-016 2.78299e-015 0
rhumerus -41.2 9.61094 -82.2456
rradius 35.9384 0 0
rwrist -19.0324 0 0
rhand -29.6822 -24.2046 0
rfingers 7.12502 0 0
rthumb -3.01053 -54.1599 0
